<?xml version="1.0" encoding="UTF-8"?>
<svg width="22px" height="29px" viewBox="0 0 22 29" version="1.1" xmlns="http://www.w3.org/2000/svg" xmlns:xlink="http://www.w3.org/1999/xlink">
    <!-- Generator: Sketch 63.1 (92452) - https://sketch.com -->
    <title>icon_base</title>
    <desc>Created with Sketch.</desc>
    <g id="页面-1" stroke="none" stroke-width="1" fill="none" fill-rule="evenodd">
        <g id="00-数据概览" transform="translate(-29.000000, -376.000000)" fill="#667799" fill-rule="nonzero">
            <g id="icon_base" transform="translate(29.000000, 375.000000)">
                <path d="M11.007,5.836 C9.2396888,5.836 7.807,7.2686888 7.807,9.036 C7.807,10.8033112 9.2396888,12.236 11.007,12.236 C12.7743112,12.236 14.207,10.8033112 14.207,9.036 C14.2031501,7.27028593 12.7727141,5.83984988 11.007,5.836 Z" id="路径_139-path"></path>
                <path d="M7.448,5.479 C7.80201452,5.12498548 7.80201452,4.55101452 7.448,4.197 C7.09398548,3.84298548 6.52001452,3.84298548 6.166,4.197 C3.49656965,6.87273092 3.49656965,11.2042691 6.166,13.88 C6.39500724,14.1090073 6.72879258,14.1984448 7.04162231,14.1146223 C7.35445203,14.0307999 7.59879986,13.786452 7.68262233,13.4736223 C7.76644479,13.1607926 7.67700727,12.8270072 7.448,12.598 C5.48550817,10.6307495 5.48550817,7.44625051 7.448,5.479 L7.448,5.479 Z" id="路径_140"></path>
                <path d="M15.848,4.196 C15.4908174,3.86154067 14.9327211,3.87070606 14.5867136,4.21671359 C14.2407061,4.56272112 14.2315407,5.12081744 14.566,5.478 C15.5132099,6.42035151 16.0457572,7.70137391 16.0457572,9.0375 C16.0457572,10.3736261 15.5132099,11.6546485 14.566,12.597 C14.2119855,12.9510145 14.2119855,13.5249855 14.566,13.879 C14.9200145,14.2330145 15.4939855,14.2330145 15.848,13.879 C17.1352194,12.5966412 17.8587818,10.8544695 17.8587818,9.0375 C17.8587818,7.22053053 17.1352194,5.47835883 15.848,4.196 L15.848,4.196 Z" id="路径_141"></path>
                <path d="M1.813,9.054 C1.80817425,6.61181039 2.78038271,4.26914808 4.513,2.548 C4.84062679,2.19086283 4.82917501,1.63913637 4.48701112,1.29590155 C4.14484723,0.952666728 3.59315926,0.939490866 3.235,1.266 C1.16441937,3.32860582 0.000506542053,6.13089039 0.000506542053,9.0535 C0.000506542053,11.9761096 1.16441937,14.7783942 3.235,16.841 C3.58901453,17.1950145 4.16298546,17.1950145 4.51699997,16.841 C4.87101449,16.4869855 4.8710145,15.9130145 4.517,15.559 C2.78316157,13.8387563 1.80949922,11.4964213 1.813,9.054 L1.813,9.054 Z" id="路径_142"></path>
                <path d="M18.779,1.266 C18.5526601,1.02428248 18.2125773,0.925128537 17.8917965,1.00732849 C17.5710158,1.08952845 17.3205284,1.34001577 17.2383285,1.66079653 C17.1561285,1.98157729 17.2552825,2.32166006 17.497,2.548 C21.0840322,6.14370253 21.0840322,11.9642975 17.497,15.56 C17.1429855,15.9140145 17.1429855,16.4879855 17.497,16.842 C17.8510145,17.1960145 18.4249855,17.1960145 18.779,16.842 C23.0735209,12.5380446 23.0735209,5.56995544 18.779,1.266 L18.779,1.266 Z" id="路径_143"></path>
                <rect id="矩形_1" transform="translate(12.740241, 21.961390) rotate(-44.432734) translate(-12.740241, -21.961390) " x="11.8338335" y="15.2520745" width="1.81281506" height="13.4186311"></rect>
                <rect id="矩形_2" transform="translate(9.282755, 21.957383) rotate(-45.486233) translate(-9.282755, -21.957383) " x="2.56252846" y="21.0509878" width="13.4404541" height="1.81279149"></rect>
                <path d="M19.022,28.465 L12.705,10.908 C12.5248594,10.4523444 12.0153988,10.2221278 11.5543765,10.3880526 C11.0933542,10.5539774 10.8474506,11.0560543 10.999,11.522 L17.315,29.079 C17.4173014,29.3935303 17.682705,29.6274369 18.0075974,29.6894029 C18.3324899,29.7513688 18.6653551,29.6315686 18.8762428,29.376772 C19.0871305,29.1219755 19.1426015,28.7725841 19.021,28.465 L19.022,28.465 Z" id="路径_144"></path>
                <path d="M10.499,10.361 C10.0279315,10.1915499 9.50858714,10.4353421 9.338,10.906 L2.992,28.463 C2.86833165,28.7707765 2.92253238,29.1215131 3.13333714,29.3776021 C3.34414189,29.6336912 3.6779252,29.7542838 4.00373081,29.6920669 C4.32953641,29.6298501 4.59539506,29.3947478 4.697,29.079 L11.043,11.522 C11.1249865,11.2959113 11.1137179,11.046502 11.0116773,10.8287279 C10.9096367,10.6109537 10.7251976,10.4426855 10.499,10.361 L10.499,10.361 Z" id="路径_145"></path>
            </g>
        </g>
    </g>
</svg>