<?xml version="1.0" encoding="UTF-8"?>
<svg width="24px" height="13px" viewBox="0 0 24 13" version="1.1" xmlns="http://www.w3.org/2000/svg" xmlns:xlink="http://www.w3.org/1999/xlink">
    <!-- Generator: Sketch 63.1 (92452) - https://sketch.com -->
    <title>icon_sum备份</title>
    <desc>Created with Sketch.</desc>
    <g id="页面-1" stroke="none" stroke-width="1" fill="none" fill-rule="evenodd">
        <g id="00-首页NEW" transform="translate(-26.000000, -667.000000)" fill="#FFFFFF">
            <g id="icon_sum备份" transform="translate(26.000000, 667.000000)">
                <path d="M23.1724138,13 C22.7153793,13 22.3448276,12.6244677 22.3448276,12.1612903 C22.3448276,6.38048387 17.7041379,1.67741935 12,1.67741935 C6.29586207,1.67741935 1.65517241,6.38048387 1.65517241,12.1612903 C1.65517241,12.6244677 1.28462069,13 0.827586207,13 C0.370551724,13 0,12.6244677 0,12.1612903 C0,5.45559677 5.38324138,0 12,0 C18.6167586,0 24,5.45559677 24,12.1612903 C24,12.6244677 23.6294483,13 23.1724138,13" id="Fill-1"></path>
                <path d="M18,6 L14.6437086,10.9994636 C14.3621479,10.2406002 13.7593829,9.63783931 13.0005168,9.35628414 L18,6 Z" id="Combined-Shape"></path>
                <path d="M13.5,11.5 C13.5,12.3285 12.8285,13 12,13 C11.1715,13 10.5,12.3285 10.5,11.5 C10.5,10.6715 11.1715,10 12,10 C12.8285,10 13.5,10.6715 13.5,11.5" id="Fill-5"></path>
            </g>
        </g>
    </g>
</svg>