<?xml version="1.0" encoding="UTF-8"?>
<svg width="30px" height="23px" viewBox="0 0 30 23" version="1.1" xmlns="http://www.w3.org/2000/svg" xmlns:xlink="http://www.w3.org/1999/xlink">
    <!-- Generator: Sketch 63.1 (92452) - https://sketch.com -->
    <title>icon_equiptment</title>
    <desc>Created with Sketch.</desc>
    <g id="页面-1" stroke="none" stroke-width="1" fill="none" fill-rule="evenodd">
        <g id="00-数据概览" transform="translate(-24.000000, -326.000000)" fill="#667799" fill-rule="nonzero">
            <g id="icon_equiptment" transform="translate(39.000000, 337.500000) scale(-1, 1) translate(-39.000000, -337.500000) translate(24.000000, 326.000000)">
                <path d="M0.3125,10.0725 L17.266875,0.376875 C18.622863,-0.36027532 20.3150351,0.0192947629 21.22625,1.265 L24.51,5.959375 C24.9481779,6.58610513 25.1034029,7.36788503 24.9379027,8.11447746 C24.7724025,8.86106988 24.3013517,9.50402065 23.639375,9.886875 L20.064375,11.949375 L20.71,12.81125 C21.4441428,13.7765333 21.4312834,15.1164842 20.67875,16.0675 L21.630625,17.49875 L26.25,17.49875 L26.25,15.6175 C26.2501598,15.4523606 26.3162603,15.2941229 26.4336168,15.1779399 C26.5509733,15.061757 26.7098674,14.9972502 26.875,14.99875 L29.375,14.99875 C29.5401326,14.9972502 29.6990267,15.061757 29.8163832,15.1779399 C29.9337397,15.2941229 30,15.4523606 30,15.6175 L30,21.87375 C30,22.218928 29.720178,22.49875 29.375,22.49875 L26.875,22.49875 C26.529822,22.49875 26.25,22.218928 26.25,21.87375 L26.25,21.24875 L21.625,21.24875 C20.370485,21.2502998 19.198696,20.6229832 18.504375,19.578125 L17.48,18.04 C17.2835031,18.0886679 17.0823523,18.1161166 16.88,18.121875 C15.8796432,18.1191257 14.9533273,17.594237 14.436875,16.7375 L13.749375,15.591875 L8.4375,18.666875 C8.2882709,18.7531179 8.11005093,18.7739065 7.94497855,18.7243256 C7.77990617,18.6747447 7.64263625,18.559196 7.565625,18.405 L7.103125,17.4775 C7.026875,17.483125 6.954375,17.499375 6.876875,17.499375 C4.46063596,17.4952406 2.5035944,15.536242 2.501875,13.12 C2.5064389,12.8448899 2.53910865,12.5709667 2.599375,12.3025 L0.349375,11.1775 C0.140816914,11.0762314 0.00545256814,10.8678352 -0.00228001484,10.6361198 C-0.0100125978,10.4044044 0.111157268,10.1874474 0.3125,10.0725 Z M27.5,21.251875 L28.75,21.251875 L28.75,16.24875 L27.5,16.24875 L27.5,21.24875 L27.5,21.251875 Z M19.550625,18.890625 C20.0135938,19.5868074 20.7945574,20.004745 21.630625,20.0037518 L26.25,20.0037518 L26.25,18.75375 L21.625,18.75375 C21.2068081,18.7545726 20.8161388,18.5453861 20.585,18.196875 L19.725,16.898125 L18.651875,17.541875 L19.550625,18.890625 Z M15.515,16.1025 C15.9846425,16.8384029 16.9474848,17.0790449 17.708125,16.650625 L19.293125,15.699375 C19.6466841,15.4866662 19.8937307,15.1342865 19.9731615,14.7293916 C20.0525924,14.3244968 19.9569899,13.9048974 19.71,13.574375 L18.97375,12.5925 L14.83875,14.978125 L15.515,16.1025 Z M6.46875,16.2125 L5.16,13.591875 L3.77125,12.898125 C3.764375,12.975 3.750625,13.054375 3.750625,13.128125 C3.75576873,14.6919909 4.91790193,16.0104469 6.46875,16.211875 L6.46875,16.2125 Z M5.604375,12.416875 L21.19625,3.421875 L20.201875,1.99875 C19.6805808,1.25472555 18.6785311,1.02994143 17.889375,1.48 L1.949375,10.589375 L5.604375,12.416875 Z" id="cam01"></path>
            </g>
        </g>
    </g>
</svg>