<?xml version="1.0" encoding="UTF-8"?>
<svg width="32px" height="32px" viewBox="0 0 32 32" version="1.1" xmlns="http://www.w3.org/2000/svg" xmlns:xlink="http://www.w3.org/1999/xlink">
    <!-- Generator: Sketch 63.1 (92452) - https://sketch.com -->
    <title>农作物</title>
    <desc>Created with Sketch.</desc>
    <g id="页面-1" stroke="none" stroke-width="1" fill="none" fill-rule="evenodd">
        <g id="00-首页NEW" transform="translate(-106.000000, -746.000000)">
            <g id="农作物" transform="translate(106.000000, 746.000000)">
                <g id="从业人员备份-2" fill="#222A3A">
                    <g id="地块备份">
                        <g id="基站统计备份-2">
                            <circle id="椭圆形" cx="16" cy="16" r="16"></circle>
                        </g>
                    </g>
                </g>
                <g id="icon_crop备份" transform="translate(8.000000, 7.000000)" fill-rule="nonzero" stroke="#1989FA" stroke-width="1.5">
                    <path d="" id="路径"></path>
                    <path d="" id="路径"></path>
                    <path d="M5.11156914,19 C4.71229648,19 4.35033469,18.842231 4.20946589,18.6038825 C0.751169301,12.7521433 0.0337445979,5.68051423 0.000837359063,3.13946961 L-3.45938556e-13,2.86177234 C0.000970547943,2.74575723 2.57725427,9.19708191 5.50733717,14.7258772 L4.3471416,9.76296906 C3.59530399,5.25186574 4.27237675,1.3015727 4.70323398,0.00156932407 C4.74306144,-0.118531626 5.28547738,6.68160343 6.61002624,11.2128493 C6.99423879,10.5379782 7.51034225,10.0128535 8.20077705,9.88171409 C10.4404053,9.45633865 14.3914793,13.8053684 15.9697973,15.6732544 C16.0684194,15.7899526 15.9045077,15.9401758 15.7797131,15.8476065 C13.9480034,14.4890209 9.77958048,11.4972237 8.80322957,11.6584965 C8.09778023,11.7750232 7.41980113,15.4299339 7.08618022,17.5378509 C7.30280298,17.8971403 7.51884989,18.2450519 7.73384278,18.5783123 C7.86385331,18.7797792 7.6339813,19 7.29240766,19 L7.29240766,19 Z" id="形状结合"></path>
                </g>
            </g>
        </g>
    </g>
</svg>