<?xml version="1.0" encoding="UTF-8"?>
<svg width="11px" height="12px" viewBox="0 0 11 12" version="1.1" xmlns="http://www.w3.org/2000/svg" xmlns:xlink="http://www.w3.org/1999/xlink">
    <!-- Generator: Sketch 63.1 (92452) - https://sketch.com -->
    <title>icon_more备份 2</title>
    <desc>Created with Sketch.</desc>
    <g id="页面-1" stroke="none" stroke-width="1" fill="none" fill-rule="evenodd">
        <g id="00-首页NEW" transform="translate(-372.000000, -244.000000)" fill="#FFFFFF" fill-rule="nonzero">
            <g id="icon_more备份-2" transform="translate(372.000000, 244.000000)">
                <path d="M3.40713535,8.94793949 C3.29372494,8.93829691 3.18297725,8.89008403 3.09619408,8.80330086 L3.09619408,8.80330086 L-1.85355339,3.85355339 C-2.04881554,3.65829124 -2.04881554,3.34170876 -1.85355339,3.14644661 C-1.65829124,2.95118446 -1.34170876,2.95118446 -1.14644661,3.14644661 L-1.14644661,3.14644661 L3.475,7.768 L8.09619408,3.14644661 C8.29145622,2.95118446 8.60803871,2.95118446 8.80330086,3.14644661 C8.998563,3.34170876 8.998563,3.65829124 8.80330086,3.85355339 L3.85355339,8.80330086 C3.76677021,8.89008403 3.65602253,8.93829691 3.54261211,8.94793949 Z" id="icon_arrow备份-2" transform="translate(3.474874, 5.974874) scale(-1, -1) rotate(90.000000) translate(-3.474874, -5.974874) "></path>
                <path d="M7.40713535,8.94793949 C7.29372494,8.93829691 7.18297725,8.89008403 7.09619408,8.80330086 L7.09619408,8.80330086 L2.14644661,3.85355339 C1.95118446,3.65829124 1.95118446,3.34170876 2.14644661,3.14644661 C2.34170876,2.95118446 2.65829124,2.95118446 2.85355339,3.14644661 L2.85355339,3.14644661 L7.475,7.768 L12.0961941,3.14644661 C12.2914562,2.95118446 12.6080387,2.95118446 12.8033009,3.14644661 C12.998563,3.34170876 12.998563,3.65829124 12.8033009,3.85355339 L7.85355339,8.80330086 C7.76677021,8.89008403 7.65602253,8.93829691 7.54261211,8.94793949 Z" id="icon_arrow备份-2" transform="translate(7.474874, 5.974874) scale(-1, -1) rotate(90.000000) translate(-7.474874, -5.974874) "></path>
            </g>
        </g>
    </g>
</svg>